<?xml version="1.0" encoding="UTF-8"?>
<svg version="1.1" xmlns="http://www.w3.org/2000/svg" width="1132" height="600">
<path d="M0 0 C4.23914626 5.29893282 3.22278636 11.23350653 3.24023438 17.73071289 C3.24994768 19.92567733 3.28097409 22.11970822 3.3125 24.31445312 C3.31902948 25.70832777 3.32428017 27.10220911 3.328125 28.49609375 C3.3374707 29.76638428 3.34681641 31.0366748 3.35644531 32.34545898 C3 35.5 3 35.5 1.71891308 37.17346042 C-1.31753469 39.51678318 -5.15882802 38.91186644 -8.84448242 38.88526917 C-9.75964473 38.89050486 -10.67480703 38.89574056 -11.61770153 38.90113491 C-14.69708977 38.9151505 -17.7760622 38.90778123 -20.85546875 38.90063477 C-23.05791599 38.90637424 -25.26036009 38.91345575 -27.46279907 38.92178345 C-32.2116894 38.9369226 -36.96046711 38.94266859 -41.7093811 38.94125557 C-49.21281218 38.93922722 -56.71609107 38.95875236 -64.21948242 38.98143005 C-74.73453156 39.01103699 -85.24956598 39.03162861 -95.76464844 39.04370117 C-96.43206271 39.04447066 -97.09947698 39.04524015 -97.78711593 39.04603296 C-100.49150745 39.04913535 -103.19589898 39.05221817 -105.90029055 39.055273 C-113.34531389 39.0638036 -120.790333 39.07470415 -128.23535156 39.08666992 C-128.90195419 39.08773794 -129.56855682 39.08880596 -130.25535953 39.08990634 C-141.36237938 39.10798662 -152.46937175 39.13402021 -163.57636356 39.16480106 C-171.04110026 39.18477152 -178.50575764 39.19430593 -185.97052002 39.19575322 C-190.60757874 39.19849632 -195.24459341 39.20931043 -199.88163376 39.22226334 C-202.03797372 39.22655661 -204.19432364 39.22739392 -206.35066605 39.22458839 C-209.28571918 39.22120677 -212.22049209 39.22992609 -215.15551758 39.24171448 C-216.01630511 39.23773338 -216.87709265 39.23375229 -217.76396465 39.22965056 C-221.68875213 39.25774736 -223.66003215 39.27335477 -227 41.5 C-227.56772976 45.71742104 -227.25250903 48.00433412 -225.3125 51.8125 C-222.43912143 55.15183185 -220.32359083 56.3040137 -215.88738883 56.67819095 C-213.1972023 56.75790887 -210.51455114 56.76453619 -207.82319641 56.7515564 C-206.27153826 56.7560116 -206.27153826 56.7560116 -204.68853348 56.76055682 C-201.21718563 56.76820428 -197.74600661 56.76169959 -194.2746582 56.75537109 C-191.78771347 56.75812067 -189.30076962 56.76180036 -186.81382751 56.76634216 C-181.4549504 56.77445946 -176.09611716 56.77678386 -170.73723793 56.77439499 C-162.97832326 56.77129555 -155.21948146 56.782943 -147.46058514 56.79894479 C-134.85760039 56.82490673 -122.25461559 56.84492451 -109.65161133 56.85839844 C-108.52036302 56.85961399 -108.52036302 56.85961399 -107.36626121 56.8608541 C-96.67117425 56.87206809 -85.9760925 56.87735506 -75.28100046 56.88024123 C-74.52835087 56.88044522 -73.77570129 56.88064921 -73.00024414 56.88085938 C-72.24851491 56.88105931 -71.49678569 56.88125925 -70.72227678 56.88146524 C-58.17211299 56.88520244 -45.62202814 56.904318 -33.07190388 56.93595374 C-25.3365923 56.95483773 -17.60148347 56.96084876 -9.86615523 56.95013656 C-3.93256577 56.94305164 2.00086368 56.95663288 7.93442345 56.97775459 C10.36357101 56.98307246 12.79274467 56.98158678 15.22188187 56.97271919 C18.5443509 56.96157083 21.865867 56.97506245 25.1882782 56.99447632 C26.14404005 56.98535166 27.09980191 56.976227 28.08452624 56.96682584 C37.55494182 57.07411469 45.35335404 60.06135291 52.24609375 66.578125 C58.80433077 73.76443372 61.31467346 81.45857265 61.26069641 91.18391418 C61.26452196 91.92604603 61.26834751 92.66817788 61.27228898 93.43279856 C61.28255249 95.90294503 61.27863956 98.37285615 61.2746582 100.84301758 C61.27900841 102.62090773 61.28419259 104.39879601 61.29014587 106.17668152 C61.30351516 110.99498779 61.30411675 115.81321552 61.30158257 120.63153672 C61.30051127 124.65966886 61.30540042 128.68778521 61.310188 132.71591395 C61.32127644 142.22313764 61.32172458 151.73032181 61.31567383 161.23754883 C61.30963646 171.03108192 61.32194057 180.82447126 61.3432439 190.61797982 C61.36088438 199.03859902 61.36685732 207.45917257 61.36360615 215.87980956 C61.36179676 220.90357891 61.364395 225.92724575 61.37832069 230.95099831 C61.39093393 235.67804577 61.38892193 240.40486994 61.37590981 245.13191414 C61.37355192 246.86121955 61.37625029 248.59054085 61.38453293 250.31982803 C61.43796089 262.34741339 61.10625099 272.83171522 53.10546875 282.453125 C47.64957102 287.75718884 41.0071014 291.61342919 33.32274723 291.6398077 C32.3557905 291.64549894 31.38883377 291.65119018 30.39257532 291.65705389 C29.32781566 291.65823376 28.26305599 291.65941364 27.16603088 291.66062927 C26.03670684 291.66571709 24.9073828 291.67080491 23.74383682 291.67604691 C19.93933323 291.69180998 16.13484868 291.70030671 12.33032227 291.70874023 C10.3031645 291.71545843 8.27601075 291.72296038 6.24885619 291.73058056 C-2.62216545 291.76390941 -11.49319869 291.78542955 -20.36426243 291.80378041 C-22.67513782 291.8085762 -24.98601274 291.81355945 -27.29688764 291.81858563 C-41.65283076 291.84956329 -56.00877795 291.87624397 -70.36474514 291.89300442 C-73.69034774 291.89695382 -77.01595028 291.90095682 -80.34155273 291.9050293 C-81.16809941 291.90603766 -81.99464609 291.90704602 -82.84623963 291.90808494 C-96.22374387 291.92507712 -109.60106263 291.96616916 -122.9784764 292.01705229 C-136.71957954 292.06888764 -150.46058746 292.09795467 -164.20178753 292.1052013 C-171.91414802 292.1098567 -179.62620506 292.1245352 -187.33846855 292.1649456 C-193.90964518 292.19933532 -200.4804636 292.21314914 -207.05172502 292.20052146 C-210.40145809 292.19471449 -213.7498246 292.20172352 -217.09954453 292.2286911 C-220.74137586 292.25643587 -224.38132947 292.24683271 -228.0231781 292.22825623 C-229.06786127 292.24505115 -230.11254444 292.26184608 -231.18888468 292.27914995 C-240.76783392 292.15764649 -249.21237033 288.67550353 -256 281.8125 C-264.49710319 270.70784353 -263.57263386 258.05812055 -263.51757812 244.77148438 C-263.52300447 242.57098427 -263.53013 240.37048781 -263.53881836 238.16999817 C-263.55699349 232.21753019 -263.55000807 226.26534073 -263.53730202 220.31286812 C-263.52714427 214.07067259 -263.5365754 207.82850022 -263.54284668 201.58630371 C-263.55057997 190.4350193 -263.53818326 179.28384401 -263.51780933 168.13258117 C-263.4999405 158.04031066 -263.50304529 147.94822423 -263.52148438 137.85595703 C-263.54293395 126.11061291 -263.55083541 114.36537608 -263.53903532 102.62001467 C-263.53281318 96.41192998 -263.53192961 90.20397184 -263.54518127 83.99589539 C-263.55677282 78.15822982 -263.54865341 72.32091043 -263.52560425 66.48328209 C-263.52033484 64.34642294 -263.52180047 62.20953445 -263.53065491 60.07268715 C-263.62735492 34.35658288 -263.62735492 34.35658288 -253.92578125 24.21875 C-246.42701724 17.52614115 -238.58790395 15.32931365 -228.75920105 14.48675537 C-227.83754176 14.40196434 -226.91588247 14.31717331 -225.96629411 14.22981286 C-222.88330739 13.9480274 -219.79949575 13.67664423 -216.71557617 13.40527344 C-214.50266822 13.20527642 -212.2898144 13.00467956 -210.07701111 12.80352783 C-204.0693115 12.25950198 -198.06080778 11.72491409 -192.05204558 11.19276714 C-187.03447826 10.74775961 -182.01727614 10.29870499 -177.00005418 9.84982324 C-165.83802959 8.85144836 -154.67542318 7.85981162 -143.51232501 6.87353155 C-142.84302094 6.814397 -142.17371687 6.75526245 -141.48413086 6.69433594 C-140.81400572 6.63513002 -140.14388059 6.57592411 -139.45344863 6.51492408 C-128.59509874 5.55522171 -117.73805987 4.58148209 -106.8815399 3.60131523 C-95.72336317 2.59407115 -84.5642707 1.59745924 -73.40422231 0.61114144 C-67.14303667 0.0576131 -60.88230392 -0.50018136 -54.6224575 -1.06867218 C-48.73432402 -1.60301405 -42.84515716 -2.12398596 -36.95493507 -2.63477325 C-34.79583963 -2.82426944 -32.63715241 -3.01848644 -30.47894287 -3.21781921 C-27.52751038 -3.48966168 -24.57506505 -3.7442568 -21.62174988 -3.99468994 C-20.77270385 -4.07697035 -19.92365783 -4.15925076 -19.04888314 -4.24402452 C-12.07267301 -4.80503801 -5.53180137 -4.60983447 0 0 Z " fill="#EE4D2D" transform="translate(380,120.5)"/>
<path d="M0 0 C0.75516907 -0.00511093 1.51033813 -0.01022186 2.28839111 -0.01548767 C4.78706799 -0.02939103 7.28546868 -0.02842415 9.78417969 -0.02612305 C11.53375347 -0.03001403 13.28332631 -0.03434952 15.03289795 -0.03910828 C18.7081609 -0.04657534 22.38332786 -0.04627894 26.05859375 -0.04101562 C30.72491463 -0.03526793 35.39083248 -0.05203452 40.05708694 -0.0753603 C43.67781807 -0.09024801 47.29845601 -0.09094834 50.91921234 -0.08785057 C52.63646991 -0.08835786 54.35373354 -0.09348182 56.070961 -0.10366249 C80.8389006 -0.23230507 103.64248287 5.25354802 121.83105469 23.0246582 C136.8300108 38.37687727 142.91092845 57.47227837 142.81738281 78.46826172 C142.43852616 98.99020795 134.05190777 116.20535104 119.45605469 130.2746582 C118.73804688 131.01200195 118.02003906 131.7493457 117.28027344 132.5090332 C101.94192387 147.41409606 81.51353197 151.45726716 60.86621094 151.37231445 C58.91671791 151.37019203 58.91671791 151.37019203 56.92784119 151.36802673 C53.49362216 151.36423154 50.05944627 151.35442729 46.62524414 151.34332275 C43.11247338 151.33304376 39.59969557 151.32851528 36.08691406 151.32348633 C29.20994336 151.31280197 22.3330011 151.29576209 15.45605469 151.2746582 C15.46271652 152.22821701 15.46937836 153.18177582 15.47624207 154.16423035 C15.53707868 163.1542002 15.58203956 172.14412825 15.6114912 181.13425732 C15.62714166 185.75609612 15.64836862 190.37776862 15.68237305 194.99951172 C15.71498861 199.46044358 15.73291237 203.92121556 15.74068642 208.38225746 C15.74622598 210.08350453 15.75704345 211.78474292 15.77324486 213.48592186 C15.7950486 215.87036365 15.79802042 218.2541463 15.79663086 220.63867188 C15.80741669 221.34070236 15.81820251 222.04273285 15.82931519 222.76603699 C15.80200653 227.10181127 15.10996139 229.82388004 12.45605469 233.2746582 C8.82195671 235.09170719 4.58267921 234.54506538 0.58105469 234.5871582 C-0.3303125 234.61616211 -1.24167969 234.64516602 -2.18066406 234.67504883 C-8.89258579 234.7389251 -8.89258579 234.7389251 -12.11425781 232.44262695 C-15.02597081 228.02732446 -14.68961605 223.68781489 -14.68438721 218.5954895 C-14.68735833 217.69807254 -14.69032945 216.80065557 -14.69339061 215.87604415 C-14.7020904 212.85672517 -14.70358693 209.83744577 -14.70507812 206.81811523 C-14.70970534 204.65832433 -14.71472987 202.49853424 -14.72012329 200.33874512 C-14.73325742 194.46274169 -14.73969407 188.5867497 -14.74413395 182.71073389 C-14.74706267 179.04204688 -14.75116706 175.37336301 -14.75563812 171.70467758 C-14.76931489 160.23306325 -14.77898102 148.76145607 -14.78284001 137.28983414 C-14.78732322 124.03447041 -14.80488259 110.77920967 -14.83384061 97.52387726 C-14.85543257 87.28602928 -14.86554294 77.04821033 -14.86688113 66.81033981 C-14.86793082 60.69175821 -14.87387359 54.57327341 -14.89170074 48.45471573 C-14.90813873 42.70097019 -14.91035772 36.94739464 -14.90156174 31.19363403 C-14.9007891 29.08005189 -14.90516371 26.96646076 -14.91501999 24.85290146 C-14.92767288 21.97099473 -14.92189894 19.08969617 -14.91143799 16.20779419 C-14.91949439 15.36839613 -14.9275508 14.52899807 -14.93585134 13.66416371 C-14.89644069 9.03254246 -14.50882298 6.05988877 -11.54394531 2.2746582 C-8.08290238 -0.33792757 -4.16286341 -0.01455547 0 0 Z M15.45605469 30.2746582 C15.45605469 59.9746582 15.45605469 89.6746582 15.45605469 120.2746582 C29.93480469 120.3984082 29.93480469 120.3984082 44.70605469 120.5246582 C49.24081543 120.57928223 49.24081543 120.57928223 53.8671875 120.63500977 C56.29784437 120.64670625 58.72850915 120.6568958 61.15917969 120.6652832 C63.010354 120.695979 63.010354 120.695979 64.89892578 120.72729492 C76.91650491 120.73206949 87.01625941 117.84063644 96.45605469 110.2746582 C97.14441406 109.72293945 97.83277344 109.1712207 98.54199219 108.6027832 C106.37730956 101.5780159 112.05686239 90.87769151 112.69433594 80.33325195 C113.06822159 64.79678722 109.4580288 53.72832486 98.83105469 42.0871582 C88.18901117 31.85363843 75.71432298 29.96508703 61.64746094 30.0793457 C60.47501831 30.08135986 59.30257568 30.08337402 58.09460449 30.08544922 C53.73588114 30.09587375 49.37721378 30.12379622 45.01855469 30.1496582 C35.26292969 30.1909082 25.50730469 30.2321582 15.45605469 30.2746582 Z " fill="#EE4D2D" transform="translate(532.5439453125,177.725341796875)"/>
<path d="M0 0 C1.67970657 1.33795776 3.35181878 2.6858941 5 4.0625 C5.01417969 3.02609375 5.02835938 1.9896875 5.04296875 0.921875 C5.08988093 -0.44796057 5.13812827 -1.81775087 5.1875 -3.1875 C5.19620117 -4.21037109 5.19620117 -4.21037109 5.20507812 -5.25390625 C5.29296875 -7.265625 5.29296875 -7.265625 6 -10.9375 C11 -14.9375 11 -14.9375 31 -14.9375 C31 32.9125 31 80.7625 31 130.0625 C11 130.0625 11 130.0625 6 126.0625 C5.46574086 123.28789454 5.21108048 121.08451654 5.1875 118.3125 C5.16236328 117.61511719 5.13722656 116.91773438 5.11132812 116.19921875 C5.05271038 114.48758051 5.02342947 112.7749814 5 111.0625 C4.17822266 111.80693359 4.17822266 111.80693359 3.33984375 112.56640625 C-12.75010742 126.35405546 -32.72403284 131.58748231 -53.60742188 130.28125 C-73.68632571 128.44546451 -91.75846779 117.99651864 -104.83203125 102.88671875 C-118.11553999 85.58225602 -122.29231898 65.30712328 -119.73193359 43.81201172 C-116.3405709 24.1305957 -104.02209804 8.39732939 -88.10546875 -2.96875 C-61.24071912 -19.9999875 -25.46091413 -19.42553503 0 0 Z M-82 29.0625 C-90.2367366 39.60232412 -93.41655405 50.74052542 -92 64.0625 C-89.74678781 74.41200004 -84.86492019 82.96488909 -77 90.0625 C-76.28457031 90.78373047 -76.28457031 90.78373047 -75.5546875 91.51953125 C-66.49454881 100.16386648 -54.90950737 102.47981688 -42.828125 102.27734375 C-29.74030609 101.5428233 -18.69454275 94.60354114 -10 85.0625 C-2.59795349 74.56033439 1.34632698 63.36890522 -0.6875 50.5 C-3.4035923 37.72896999 -10.50049759 27.75993741 -21 20.0625 C-41.44564324 8.40877839 -65.86582741 11.49151798 -82 29.0625 Z " fill="#EE4D2D" transform="translate(793,280.9375)"/>
<path d="M0 0 C5.76920528 3.58763394 8.0309168 9.9999043 10.61816406 16.01806641 C13.15547454 21.4934569 16.5203474 26.47612249 19.75 31.5625 C21.11321804 33.77367699 22.4725518 35.98725307 23.828125 38.203125 C28.04605133 45.07663548 32.2724187 51.94492486 36.5 58.8125 C37.76045242 60.86065508 39.02087025 62.90883145 40.28125 64.95703125 C40.88066406 65.9310791 41.48007812 66.90512695 42.09765625 67.90869141 C47.04882812 75.9543457 47.04882812 75.9543457 52 84 C54.92402172 81.41175111 56.6432048 78.43135768 58.58984375 75.06640625 C58.93003036 74.48178619 59.27021698 73.89716614 59.62071228 73.29483032 C60.35028233 72.04003316 61.07778265 70.78403074 61.80340576 69.52694702 C63.72554595 66.19746836 65.66297946 62.87689125 67.59765625 59.5546875 C67.98143433 58.8946019 68.3652124 58.2345163 68.76062012 57.5544281 C70.86123462 53.94365079 72.97531235 50.34202223 75.12109375 46.7578125 C75.58008057 45.99106201 76.03906738 45.22431152 76.51196289 44.43432617 C77.4266332 42.92658645 78.35444024 41.42674418 79.29467773 39.93481445 C82.13851783 35.36504467 84.63351149 30.74609487 86.92312622 25.88084412 C98.27837091 1.94351197 98.27837091 1.94351197 106.546875 -1.45996094 C115.25425493 -2.96717974 126.42382161 -3.05078559 134 2 C135.11592434 8.66999053 132.27466989 12.68930204 128.8125 18.0625 C127.69815547 19.85350555 126.58491124 21.64519606 125.47265625 23.4375 C124.60664795 24.81808594 124.60664795 24.81808594 123.72314453 26.2265625 C120.98909811 30.62706793 118.37173574 35.09449446 115.75 39.5625 C114.66193728 41.40783457 113.57338281 43.25287926 112.484375 45.09765625 C111.92298828 46.04914551 111.36160156 47.00063477 110.78320312 47.98095703 C107.86961729 52.91378869 104.94768435 57.84166906 102.02590942 62.76965332 C95.19920537 74.28389075 88.38365907 85.80467009 81.57666016 97.33056641 C78.88518587 101.88748494 76.19252321 106.44370119 73.5 111 C72.41666119 112.83333009 71.33332785 114.66666342 70.25 116.5 C63.75 127.5 57.25 138.5 50.75 149.5 C49.94598755 150.86064575 49.94598755 150.86064575 49.12573242 152.2487793 C48.03997961 154.0861946 46.95420479 155.92359689 45.8684082 157.76098633 C43.19691439 162.28176042 40.52577545 166.80274334 37.85546875 171.32421875 C35.73419652 174.91603003 33.61164376 178.50708033 31.48828125 182.09765625 C29.26618718 185.85548578 27.04767887 189.61539949 24.83192444 193.37696838 C23.37266089 195.85327909 21.91142466 198.32842238 20.44985962 200.80337524 C19.73919803 202.00777321 19.02936501 203.21266049 18.32040405 204.4180603 C17.32776778 206.10551546 16.33191256 207.79107582 15.3359375 209.4765625 C14.47814697 210.9318335 14.47814697 210.9318335 13.60302734 212.41650391 C13.07402832 213.26905762 12.5450293 214.12161133 12 215 C11.57162842 215.76368896 11.14325684 216.52737793 10.7019043 217.31420898 C8.12000707 219.87166134 6.00121018 219.5016655 2.43359375 219.49609375 C1.14388672 219.49673828 -0.14582031 219.49738281 -1.47460938 219.49804688 C-2.14516357 219.48765381 -2.81571777 219.47726074 -3.5065918 219.46655273 C-5.55925016 219.43754592 -7.60933346 219.44595322 -9.66210938 219.45898438 C-17.11289476 219.41053004 -17.11289476 219.41053004 -20 219 C-22 216 -22 216 -21.81469727 213.17260742 C-20.94323817 209.77895716 -19.72272663 207.26497789 -17.96484375 204.23828125 C-17.32869141 203.13355469 -16.69253906 202.02882813 -16.03710938 200.890625 C-15.33748204 199.69777443 -14.63760538 198.50507006 -13.9375 197.3125 C-13.21220999 196.06159231 -12.48761227 194.81028299 -11.76367188 193.55859375 C-6.25609052 184.05861717 -0.64437453 174.61932259 4.97436523 165.18481445 C9.9389079 156.83532861 14.80780566 148.43517629 19.625 140 C20.27597656 138.86111328 20.92695312 137.72222656 21.59765625 136.54882812 C22.82683178 134.39074344 24.03980708 132.22333029 25.234375 130.04589844 C27 127 27 127 29.046875 124.21191406 C30.98647041 121.41106525 32.25090053 119.32907429 33 116 C31.54627447 110.98476499 28.71280237 106.98428457 25.75 102.75 C24.93613703 101.5156183 24.12702291 100.27809341 23.32250977 99.03759766 C21.68756868 96.52643081 20.03207044 94.03107778 18.35791016 91.54589844 C15.04068616 86.59616721 11.99503532 81.48768114 8.9375 76.375 C7.79893352 74.50005049 6.65829054 72.62636045 5.515625 70.75390625 C4.94392578 69.81691895 4.37222656 68.87993164 3.78320312 67.91455078 C-0.06125354 61.63099058 -3.93144149 55.36323406 -7.79760742 49.09301758 C-13.77488345 39.38874268 -19.692171 29.64859764 -25.59301758 19.89770508 C-26.27130615 18.77775146 -26.94959473 17.65779785 -27.6484375 16.50390625 C-28.24833496 15.51205322 -28.84823242 14.5202002 -29.46630859 13.49829102 C-30.60612217 11.64160328 -31.79150897 9.81273654 -33 8 C-32.75 4.375 -32.75 4.375 -32 1 C-23.85057061 -3.0747147 -8.7494207 -2.05706598 0 0 Z " fill="#EE4D2D" transform="translate(882,265)"/>
<path d="M0 0 C0.99 1.98 0.99 1.98 2 4 C-1.465 8.95 -1.465 8.95 -5 14 C-8.74236683 12.50305327 -12.21483677 10.90766753 -15.8125 9.125 C-29.43856199 2.85731872 -45.21999138 -1.19974801 -59.9375 3.625 C-67.89285521 6.99892297 -73.3443819 11.10386491 -77 19 C-78.89344303 25.32435733 -79.04217123 31.7076787 -76.0625 37.6875 C-68.22323901 50.00943233 -52.93229126 54.30566855 -39.83569336 58.88085938 C-21.04190593 65.46960689 -3.45446193 73.89506104 7.02734375 91.75 C11.54957027 101.41964564 9.58911319 113.4487558 6.19140625 123.1328125 C1.32252254 134.8500605 -7.29611394 143.11615619 -19 148 C-40.93467925 155.52981526 -63.21877449 152.54730015 -83.93359375 142.58984375 C-90.15652498 139.35322903 -95.62034888 135.48968415 -101 131 C-100.36610765 127.50155614 -98.94822306 125.15913124 -96.9375 122.25 C-96.11572266 121.05117188 -96.11572266 121.05117188 -95.27734375 119.828125 C-94.85582031 119.22484375 -94.43429688 118.6215625 -94 118 C-89.86878711 118.60753131 -86.86460357 120.9532462 -83.5 123.25 C-71.6174731 131.10787535 -59.72270076 135.38902872 -45.4375 135.25 C-44.63892578 135.25773438 -43.84035156 135.26546875 -43.01757812 135.2734375 C-32.45791806 135.23901318 -24.15185414 131.69111249 -15.1875 126.3125 C-10.16752769 121.00567213 -7.69632734 115.17762866 -7.4375 107.875 C-7.79110743 100.004709 -10.91035267 94.84943282 -16 89 C-24.62955627 82.30073921 -34.54655033 78.64112202 -44.67578125 74.90234375 C-83.13974197 60.69531423 -83.13974197 60.69531423 -93.09375 43.0625 C-96.64191593 34.65203262 -96.55144261 23.11464597 -93.93359375 14.484375 C-88.57541258 3.09641502 -80.5039135 -4.90767132 -69 -10 C-46.41983105 -18.09238161 -19.7690455 -13.45475335 0 0 Z " fill="#FEFBFB" transform="translate(325,227)"/>
</svg>
